<svg width="198" height="199" viewBox="0 0 198 199" fill="none" xmlns="http://www.w3.org/2000/svg">
<path d="M96.6429 0.690605C95.7 1.27075 92.8286 4.107 78.3429 18.6965C71.85 25.25 65.1 32.0183 63.3429 33.7372C53.1214 43.8145 49.5 47.4888 49.5 47.8111C49.5 48.0045 49.7357 48.5201 50.0143 48.9714C50.6143 49.8953 68.6786 67.9871 69.3643 68.3309C69.9857 68.6532 70.3286 68.3524 77.0357 61.4767C80.1 58.3611 90.3214 48.0259 99.75 38.5503C109.179 29.0531 117.064 20.9526 117.279 20.5444C117.664 19.8138 117.664 19.7709 117.279 19.1477C116.679 18.2023 100.157 1.5071 99.1286 0.841011C98.0786 0.13195 97.6286 0.088974 96.6429 0.690605Z" fill="#234363"/>
<path d="M47.1215 0.948372C46.2429 1.55 46.5 1.31365 36.15 11.6058C31.5857 16.161 27.8572 19.9427 27.8572 20.0501C27.8572 20.2435 31.4786 24.1541 33.9215 26.5821C34.8857 27.5275 38.2286 30.9009 41.3357 34.038C44.4643 37.1965 47.1857 39.8179 47.4 39.9039C47.6143 39.9683 48.0857 39.8394 48.45 39.6031C49.5215 38.9155 67.5 20.8021 67.65 20.265C67.8 19.6204 67.2857 18.9113 64.5215 16.0106C60.7929 12.0785 49.6286 0.862423 49.2429 0.647556C48.6429 0.325256 47.8715 0.43269 47.1215 0.948372Z" fill="#234363"/>
<path d="M143.786 2.53844C142.907 3.46237 137.4 9.0919 131.571 15.0437C125.743 21.0171 116.764 30.1274 111.621 35.2843C106.457 40.4411 102.193 44.8674 102.129 45.1037C102 45.4475 103.671 47.2309 111.471 55.0306C116.7 60.2734 121.179 64.6781 121.436 64.85C122.164 65.3442 122.721 64.9145 126.857 60.7246C128.914 58.6404 130.714 56.814 130.843 56.6851C130.993 56.5347 136.479 51.0555 143.057 44.4806C156.193 31.3737 164.936 22.4352 165.793 21.2319C166.157 20.7162 166.307 20.308 166.221 19.9642C166.05 19.3411 148.436 1.72194 147.493 1.22775C146.121 0.518684 145.586 0.712059 143.786 2.53844Z" fill="#F1BD44"/>
<path d="M174.429 29.6118C172.971 30.3423 155.143 48.1978 155.143 48.9499C155.143 49.2292 157.35 51.6142 161.421 55.7182C164.85 59.1991 169.2 63.6253 171.064 65.5162C173.786 68.3309 174.557 68.997 175.029 68.997C175.5 69.0185 176.721 67.8797 182.336 62.1857C193.95 50.3895 195.15 48.9499 194.293 47.7251C193.8 47.0161 177.257 30.2994 176.486 29.7192C175.714 29.1606 175.414 29.1391 174.429 29.6118Z" fill="#234363"/>
<path d="M19.0715 29.8267C18.7715 30.0201 18.4287 30.2994 18.3001 30.4283C17.1215 31.5241 9.45009 39.1519 5.52866 43.127L0.642944 48.0904V49.1218V50.1317L7.54294 57.1578C23.3572 73.2299 50.3144 100.131 51.1501 100.69L52.0501 101.27L53.1001 100.497C53.6787 100.088 55.1787 98.6488 56.443 97.3166C57.7072 95.9844 61.7787 91.8375 65.5072 88.0988C71.1215 82.4477 72.2358 81.223 72.1287 80.8577C71.9787 80.428 22.6501 30.8795 21.3858 29.9126C20.7001 29.3754 19.7787 29.3325 19.0715 29.8267Z" fill="#234363"/>
<path d="M145.714 50.8192C145.307 51.0985 143.507 52.8605 141.707 54.7298C139.929 56.6206 135.9 60.7461 132.772 63.9476C128.829 67.9656 127.072 69.8994 127.072 70.2218C127.072 70.5655 133.436 77.076 150.664 94.3514C170.593 114.334 174.343 117.987 174.836 117.987C175.329 117.987 176.636 116.762 182.7 110.638C186.686 106.599 190.843 102.409 191.914 101.356C193.007 100.282 194.057 99.1 194.25 98.7347C194.593 98.1116 194.593 98.0471 194.25 97.338C193.586 96.0273 147.686 50.4539 146.936 50.3465C146.679 50.325 146.122 50.5184 145.714 50.8192Z" fill="#234363"/>
<path d="M87.0643 60.4883C80.1428 67.45 77.1428 70.6085 77.1428 70.9308C77.1428 71.2531 83.8071 78.0644 99.9 94.158C112.414 106.685 122.85 117.041 123.086 117.17C123.429 117.364 124.714 116.16 133.521 107.308C140.7 100.11 143.571 97.1017 143.571 96.7579C143.571 96.4141 137.293 90.0111 120.836 73.5737C108.343 61.0684 97.9928 50.7762 97.8643 50.6903C97.7143 50.6043 97.4785 50.5184 97.3071 50.5184C97.1357 50.5184 92.5285 55.0091 87.0643 60.4883Z" fill="#F1BD44"/>
<path d="M18.3215 79.3965C17.5501 79.7403 1.07148 95.9843 0.428624 97.0587C0.107195 97.5743 5.23105e-05 97.9826 0.107195 98.3694C0.192909 98.7346 9.23577 107.974 25.7786 124.583C45.3001 144.179 51.4501 150.217 51.8358 150.217C52.1143 150.217 52.7358 149.916 53.2286 149.529C54.5358 148.541 71.3358 131.523 71.4858 131.029C71.5929 130.707 66.5358 125.529 45.8786 104.858C18.1286 77.076 19.9072 78.709 18.3215 79.3965Z" fill="#234363"/>
<path d="M69.5356 93.32C64.3499 98.5628 59.5714 103.333 58.9071 103.956C57.5999 105.138 56.7856 106.105 56.7856 106.405C56.7856 106.771 75.3214 125.249 76.0499 125.615C76.6499 125.915 76.8642 125.937 77.3999 125.701C78.0856 125.421 80.8714 122.692 91.9928 111.412C97.6928 105.632 99.2142 103.977 99.2142 103.548C99.2142 103.097 97.2642 101.012 89.7428 93.406C81.4714 85.0476 80.1642 83.8229 79.6071 83.8229C79.0499 83.8014 77.8285 84.9617 69.5356 93.32Z" fill="#234363"/>
<path d="M147.707 102.387C147.386 102.667 145.221 104.815 142.929 107.157C136.843 113.346 132.086 118.116 130.436 119.663C129.364 120.694 129 121.167 129 121.597C129 122.069 130.2 123.359 135.707 128.752C139.371 132.383 148.521 141.472 155.979 148.949C173.379 166.375 174.493 167.406 175.757 167.406C176.55 167.406 176.936 167.041 186.664 157.05L194.143 149.379V148.434C194.143 147.789 193.993 147.295 193.607 146.758C192.557 145.339 149.079 101.872 148.693 101.872C148.5 101.872 148.05 102.108 147.707 102.387Z" fill="#234363"/>
<path d="M99.1071 112.787C91.9071 119.899 36.5142 175.679 35.1857 177.118C33.8357 178.601 33.7928 179.052 34.8428 180.535C35.6999 181.759 48.6214 194.931 50.7428 196.757C52.2642 198.068 52.9499 198.218 54.0857 197.488C54.4499 197.251 70.3071 181.48 89.3142 162.4C115.05 136.573 123.857 127.613 123.857 127.248C123.857 126.904 123.279 126.216 121.993 125.013C120.986 124.046 118.157 121.253 115.736 118.803C110.036 113.066 104.593 107.888 104.271 107.888C104.143 107.888 101.807 110.101 99.1071 112.787Z" fill="#F1BD44"/>
<path d="M19.2858 130.041C17.8072 131.244 1.71438 147.574 1.50009 148.068C1.28581 148.562 1.32866 148.799 1.65009 149.422C2.14295 150.389 18.3215 166.805 19.2215 167.277C19.7572 167.535 20.0358 167.578 20.4858 167.406C21.5144 166.998 39.0001 149.164 39.0001 148.52C39.0001 147.939 38.3787 147.23 34.1787 142.911C32.1644 140.849 29.8501 138.442 29.0144 137.561C28.2001 136.68 26.1001 134.532 24.3644 132.77C21.5787 129.998 21.0858 129.59 20.5072 129.59C20.1215 129.611 19.5858 129.805 19.2858 130.041Z" fill="#234363"/>
<path d="M128.893 131.975C128.657 132.061 117.921 142.718 105.064 155.653C83.7428 177.075 81.6428 179.246 81.6428 179.869C81.6428 180.492 82.5214 181.459 90.4714 189.452C100.157 199.207 100.05 199.121 101.421 198.111C101.807 197.853 107.55 192.116 114.214 185.369C120.879 178.644 131.271 168.18 137.314 162.142C143.593 155.825 148.286 150.969 148.286 150.754C148.286 150.346 130.243 132.125 129.643 131.91C129.471 131.846 129.129 131.867 128.893 131.975Z" fill="#234363"/>
<path d="M147.943 160.531C146.743 161.304 129.643 178.988 129.643 179.46C129.643 180.191 132.214 183.027 139.221 190.01C146.55 197.359 147.171 197.918 147.857 197.918C148.543 197.918 148.971 197.552 153.107 193.341C155.593 190.848 159.579 186.766 161.957 184.316C166.157 179.976 166.286 179.826 166.286 178.966C166.286 178.021 165.686 177.14 163.714 175.142C163.179 174.604 159.814 171.145 156.214 167.449C152.614 163.754 149.421 160.574 149.121 160.423C148.629 160.165 148.5 160.165 147.943 160.531Z" fill="#234363"/>
</svg>
